<svg xmlns="http://www.w3.org/2000/svg" viewBox="0 0 1200 800">
<!-- Cherry Blossom Branch -->
<g opacity=".09" stroke="#8b4060" stroke-width="4" fill="none" stroke-linecap="round"><path d="M0,300Q100,280,200,320Q350,380,500,350Q580,330,650,360"/><path d="M200,320Q230,280,260,300"/><path d="M400,360Q420,330,450,345"/><path d="M550,340Q580,310,600,330"/></g>
<!-- Blossoms on branch -->
<g opacity=".1"><g fill="#ff9a9e"><circle cx="200" cy="290" r="10"/><circle cx="185" cy="305" r="10"/><circle cx="215" cy="305" r="10"/><circle cx="190" cy="320" r="10"/><circle cx="210" cy="320" r="10"/><circle cx="200" cy="308" r="5" fill="#fff5f7"/></g></g>
<g opacity=".09"><g fill="#ff9a9e"><circle cx="440" cy="340" r="9"/><circle cx="426" cy="352" r="9"/><circle cx="454" cy="352" r="9"/><circle cx="430" cy="365" r="9"/><circle cx="450" cy="365" r="9"/><circle cx="440" cy="353" r="4.5" fill="#fff5f7"/></g></g>
<g opacity=".08"><g fill="#fcb69f"><circle cx="600" cy="325" r="8"/><circle cx="588" cy="336" r="8"/><circle cx="612" cy="336" r="8"/><circle cx="591" cy="347" r="8"/><circle cx="609" cy="347" r="8"/><circle cx="600" cy="337" r="4" fill="#fff5f7"/></g></g>
<!-- Floating Petals -->
<ellipse cx="350" cy="200" rx="10" ry="5" fill="#ff9a9e" opacity=".08" transform="rotate(-30,350,200)"/>
<ellipse cx="700" cy="250" rx="8" ry="4" fill="#fcb69f" opacity=".07" transform="rotate(20,700,250)"/>
<ellipse cx="500" cy="500" rx="9" ry="4.5" fill="#ff9a9e" opacity=".06" transform="rotate(-45,500,500)"/>
<ellipse cx="900" cy="180" rx="7" ry="3.5" fill="#fcb69f" opacity=".07" transform="rotate(15,900,180)"/>
<ellipse cx="150" cy="500" rx="10" ry="5" fill="#ff9a9e" opacity=".05" transform="rotate(35,150,500)"/>
<ellipse cx="1050" cy="400" rx="8" ry="4" fill="#ff9a9e" opacity=".06" transform="rotate(-20,1050,400)"/>
<ellipse cx="800" cy="600" rx="9" ry="4.5" fill="#fcb69f" opacity=".05" transform="rotate(50,800,600)"/>
<!-- Torii Gate -->
<g opacity=".07" fill="#e11d73"><rect x="850" y="500" width="12" height="120"/><rect x="1000" y="500" width="12" height="120"/><rect x="835" y="495" width="190" height="14" rx="3"/><rect x="845" y="520" width="172" height="10"/><rect x="840" y="480" width="182" height="8" rx="4"/></g>
<!-- Lantern -->
<g opacity=".08" fill="#e11d73"><rect x="100" y="100" width="4" height="30"/><ellipse cx="102" cy="95" rx="3" ry="5"/><rect x="85" y="130" width="34" height="45" rx="8"/><rect x="90" y="140" width="24" height="2" opacity=".3"/><rect x="90" y="155" width="24" height="2" opacity=".3"/><rect x="95" y="175" width="14" height="5" rx="2"/></g>
<!-- Second branch bottom -->
<g opacity=".06" stroke="#8b4060" stroke-width="3" fill="none" stroke-linecap="round"><path d="M1200,650Q1100,640,1000,660Q900,680,800,670"/><path d="M1000,660Q980,640,960,650"/></g>
<g opacity=".07" fill="#ff9a9e"><circle cx="960" cy="640" r="7"/><circle cx="950" cy="650" r="7"/><circle cx="970" cy="650" r="7"/><circle cx="960" cy="648" r="3.5" fill="#fff5f7"/></g>
<!-- Ground bamboo -->
<g opacity=".05" stroke="#e11d73" stroke-width="2.5" fill="none"><line x1="1150" y1="800" x2="1150" y2="400"/><line x1="1140" y1="550" x2="1150" y2="550"/><line x1="1140" y1="480" x2="1150" y2="480"/><path d="M1150,530Q1170,520,1180,540"/><path d="M1150,460Q1130,450,1120,460"/></g>
</svg>